<svg t="1709001228350" class="icon" viewBox="0 0 1024 1024" version="1.1" xmlns="http://www.w3.org/2000/svg" p-id="1782" width="32" height="32"><path d="M874.957 359.637c6.479 5.756 7.335 14.596 2.554 18.971-4.898 4.393-12.849 3.522-18.228-1.244-52.483-46.62-131.525-48.038-185.708-3.326-5.508 4.564-13.521 5.169-18.201 0.594-4.709-4.551-3.491-13.354 3.193-18.857 63.093-52.134 155.211-50.486 216.39 3.862z" fill="#409eff" p-id="1783"></path><path d="M835.27 389.031c8.083 6.253 9.854 16.208 4.925 20.485-4.933 4.328-13.271 2.961-19.447-1.766-31.925-24.893-76.88-25.694-109.793-1.97-6.305 4.498-14.79 5.562-19.497 1.078-4.723-4.468-2.567-14.341 5.728-20.294 41.32-29.855 97.825-28.838 138.084 2.467z" fill="#409eff" p-id="1784"></path><path d="M806.962 419.271c9.172 5.873 11.273 16.353 6.239 20.55-4.952 4.263-12.954 3.151-18.977-0.649-17.478-11.189-39.931-11.599-57.817-1.033-6.104 3.574-14.284 4.381-18.991-0.027-4.922-4.396-2.378-14.778 6.939-20.321 25.499-15.178 57.677-14.599 82.607 1.48z" fill="#409eff" p-id="1785"></path><path d="M351.626 877.062H215.483c-117.639 0-213.475-95.699-213.475-213.47 0-117.775 95.836-213.338 213.614-213.338v54.843c-87.475 0-158.634 71.157-158.634 158.495 0 87.471 71.16 158.628 158.634 158.628h136.143v54.842h-0.139z m0 0" fill="#409eff" p-id="1786"></path><path d="M670.147 299.779h67.615a316.792 316.792 0 0 0-53.79-65.326c-57.859-53.748-132.719-83.226-211.007-83.226-83.361 0-161.645 32.357-220.604 91.313-58.817 58.955-91.312 137.243-91.312 220.601h54.841c0-141.765 115.446-257.072 257.213-257.072 78.075 0 149.43 36.452 197.044 93.71zM985.273 779.577V636.555h-0.319l-14.63-220.1h-59.479l-14.63 220.1H870.24v-81.212h-1.062L733.577 471.48v57.464l-93.088-57.571v57.571l-93.086-57.571v83.864h-22.479v81.213H496.62v233.67h526.608v-90.542h-37.955z m-355.492-26.504h-61.808v-90.65h61.808v90.65z m1.379-125.107h-64.461v-47.499h64.461v47.499z m94.998 125.107h-61.814v-90.65h61.814v90.65z m1.269-125.107h-64.458v-47.499h64.458v47.499z m94.997 125.107h-61.812v-90.65h61.812v90.65z m1.376-125.107h-64.459v-47.499H823.8v47.499zM455.005 822.22H205v54.509h250.005c15.218 0 27.422-12.261 27.422-27.255 0-14.988-12.342-27.254-27.422-27.254z" fill="#409eff" p-id="1787"></path></svg>