<svg t="1703817645735" class="icon" viewBox="0 0 1024 1024" version="1.1" xmlns="http://www.w3.org/2000/svg" p-id="4632" width="128" height="128"><path d="M419.84 480.195765l26.383059 81.197176h85.413647L462.607059 612.111059l26.383059 81.558588-69.150118-50.115765-69.029647 50.356706 26.383059-81.799529-69.150118-50.718118h85.413647z" fill="#f9b343" p-id="4633"></path><path d="M823.055059 803.538824H496.459294l22.40753-397.552942h281.780705z" fill="#f9b343" p-id="4634"></path><path d="M688.007529 907.745882h-565.007058l38.550588-658.371764h488.026353l5.300706 91.798588c0.361412 5.300706-3.734588 9.878588-9.035294 10.24-5.300706 0.361412-9.878588-3.734588-10.24-9.035294L631.265882 268.649412H179.621647l-36.141176 619.821176h524.047058l-1.084235-18.432c-0.361412-5.300706 3.734588-9.878588 9.035294-10.24 5.300706-0.240941 9.878588 3.734588 10.24 9.035294l2.288941 38.912z" fill="#f9b343" p-id="4635"></path><path d="M869.195294 846.426353H450.439529l28.310589-483.207529h361.893647l28.551529 483.207529z m-398.275765-19.275294h377.795765l-26.262588-444.656941H496.941176l-26.021647 444.656941z" fill="#f9b343" p-id="4636"></path><path d="M263.830588 344.064m-31.683764 0a31.683765 31.683765 0 1 0 63.367529 0 31.683765 31.683765 0 1 0-63.367529 0Z" fill="#f9b343" p-id="4637"></path><path d="M263.830588 385.385412c-22.768941 0-41.321412-18.552471-41.321412-41.321412s18.552471-41.321412 41.321412-41.321412 41.321412 18.552471 41.321412 41.321412-18.552471 41.321412-41.321412 41.321412z m0-63.36753c-12.167529 0-22.046118 9.878588-22.046117 22.046118 0 12.167529 9.878588 22.046118 22.046117 22.046118s22.046118-9.878588 22.046118-22.046118c0-12.167529-9.878588-22.046118-22.046118-22.046118z" fill="#f9b343" p-id="4638"></path><path d="M523.203765 349.726118c-5.300706 0-9.637647-4.336941-9.637647-9.637647v-79.028706c0-68.427294-53.970824-124.084706-120.350118-124.084706s-120.350118 55.657412-120.350118 124.084706v79.028706c0 5.300706-4.336941 9.637647-9.637647 9.637647s-9.637647-4.336941-9.637647-9.637647v-79.028706c0-79.028706 62.644706-143.36 139.625412-143.36 37.225412 0 72.282353 14.938353 98.665412 42.164706 26.383059 27.105882 40.96 63.126588 40.96 101.195294v79.028706c0 5.300706-4.336941 9.637647-9.637647 9.637647z" fill="#f9b343" p-id="4639"></path><path d="M660.781176 571.030588c-46.742588 0-84.690824-38.912-84.690823-86.859294V450.56c0-5.300706 4.336941-9.637647 9.637647-9.637647s9.637647 4.336941 9.637647 9.637647v33.611294c0 37.225412 29.394824 67.584 65.415529 67.584s65.415529-30.358588 65.41553-67.584V450.56c0-5.300706 4.336941-9.637647 9.637647-9.637647s9.637647 4.336941 9.637647 9.637647v33.611294c0 47.947294-37.948235 86.859294-84.690824 86.859294z" fill="#f9b343" p-id="4640"></path></svg>